<svg width="196" height="40" viewBox="0 0 196 40" fill="none" xmlns="http://www.w3.org/2000/svg">
<path d="M34.1422 5.85781C30.3647 2.08031 25.3422 0 20 0C14.6578 0 9.63531 2.08031 5.85781 5.85781C2.08031 9.63531 0 14.6578 0 20C0 25.3422 2.08039 30.3646 5.85781 34.1422C9.63523 37.9198 14.6578 40 20 40C25.3422 40 30.3647 37.9197 34.1422 34.1422C37.9197 30.3647 40 25.3422 40 20C40 14.6578 37.9196 9.63539 34.1422 5.85781Z" fill="#33CC95"/>
<path d="M20.5713 8V33.1429" stroke="white" stroke-width="2" stroke-linecap="round" stroke-linejoin="round"/>
<path d="M26.2858 12.5713H17.7144C16.6535 12.5713 15.6361 12.9928 14.886 13.7429C14.1358 14.493 13.7144 15.5105 13.7144 16.5713C13.7144 17.6322 14.1358 18.6496 14.886 19.3998C15.6361 20.1499 16.6535 20.5713 17.7144 20.5713H23.4287C24.4895 20.5713 25.507 20.9928 26.2571 21.7429C27.0073 22.4931 27.4287 23.5105 27.4287 24.5713C27.4287 25.6322 27.0073 26.6496 26.2571 27.3998C25.507 28.1499 24.4895 28.5713 23.4287 28.5713H13.7144" stroke="white" stroke-width="2" stroke-linecap="round" stroke-linejoin="round"/>
<path d="M65.6726 15.636C67.1686 15.636 68.3712 16.098 69.2806 17.022C70.2046 17.9313 70.6666 19.2073 70.6666 20.85V28H67.5866V21.268C67.5866 20.3147 67.3446 19.5887 66.8606 19.09C66.3766 18.5767 65.7166 18.32 64.8806 18.32C64.0446 18.32 63.3772 18.5767 62.8786 19.09C62.3946 19.5887 62.1526 20.3147 62.1526 21.268V28H59.0726V21.268C59.0726 20.3147 58.8306 19.5887 58.3466 19.09C57.8626 18.5767 57.2026 18.32 56.3666 18.32C55.5159 18.32 54.8412 18.5767 54.3426 19.09C53.8586 19.5887 53.6166 20.3147 53.6166 21.268V28H50.5366V15.812H53.6166V17.286C54.0126 16.7727 54.5186 16.3693 55.1346 16.076C55.7652 15.7827 56.4546 15.636 57.2026 15.636C58.1559 15.636 59.0066 15.8413 59.7546 16.252C60.5026 16.648 61.0819 17.22 61.4926 17.968C61.8886 17.264 62.4606 16.6993 63.2086 16.274C63.9712 15.8487 64.7926 15.636 65.6726 15.636ZM85.2493 15.812L77.7033 33.764H74.4253L77.0653 27.692L72.1813 15.812H75.6353L78.7813 24.326L81.9713 15.812H85.2493ZM96.3916 12.644V15.13H89.9896V19.068H94.8956V21.51H89.9896V28H86.9096V12.644H96.3916ZM100.138 14.36C99.595 14.36 99.1403 14.1913 98.7736 13.854C98.4216 13.502 98.2456 13.0693 98.2456 12.556C98.2456 12.0427 98.4216 11.6173 98.7736 11.28C99.1403 10.928 99.595 10.752 100.138 10.752C100.68 10.752 101.128 10.928 101.48 11.28C101.846 11.6173 102.03 12.0427 102.03 12.556C102.03 13.0693 101.846 13.502 101.48 13.854C101.128 14.1913 100.68 14.36 100.138 14.36ZM101.656 15.812V28H98.5756V15.812H101.656ZM111.453 15.636C112.905 15.636 114.078 16.098 114.973 17.022C115.867 17.9313 116.315 19.2073 116.315 20.85V28H113.235V21.268C113.235 20.3 112.993 19.5593 112.509 19.046C112.025 18.518 111.365 18.254 110.529 18.254C109.678 18.254 109.003 18.518 108.505 19.046C108.021 19.5593 107.779 20.3 107.779 21.268V28H104.699V15.812H107.779V17.33C108.189 16.802 108.71 16.3913 109.341 16.098C109.986 15.79 110.69 15.636 111.453 15.636ZM118.452 21.862C118.452 20.63 118.694 19.5373 119.178 18.584C119.676 17.6307 120.344 16.8973 121.18 16.384C122.03 15.8707 122.976 15.614 124.018 15.614C124.927 15.614 125.719 15.7973 126.394 16.164C127.083 16.5307 127.633 16.9927 128.044 17.55V15.812H131.146V28H128.044V26.218C127.648 26.79 127.098 27.2667 126.394 27.648C125.704 28.0147 124.905 28.198 123.996 28.198C122.969 28.198 122.03 27.934 121.18 27.406C120.344 26.878 119.676 26.1373 119.178 25.184C118.694 24.216 118.452 23.1087 118.452 21.862ZM128.044 21.906C128.044 21.158 127.897 20.52 127.604 19.992C127.31 19.4493 126.914 19.0387 126.416 18.76C125.917 18.4667 125.382 18.32 124.81 18.32C124.238 18.32 123.71 18.4593 123.226 18.738C122.742 19.0167 122.346 19.4273 122.038 19.97C121.744 20.498 121.598 21.1287 121.598 21.862C121.598 22.5953 121.744 23.2407 122.038 23.798C122.346 24.3407 122.742 24.7587 123.226 25.052C123.724 25.3453 124.252 25.492 124.81 25.492C125.382 25.492 125.917 25.3527 126.416 25.074C126.914 24.7807 127.31 24.37 127.604 23.842C127.897 23.2993 128.044 22.654 128.044 21.906ZM140.908 15.636C142.36 15.636 143.533 16.098 144.428 17.022C145.322 17.9313 145.77 19.2073 145.77 20.85V28H142.69V21.268C142.69 20.3 142.448 19.5593 141.964 19.046C141.48 18.518 140.82 18.254 139.984 18.254C139.133 18.254 138.458 18.518 137.96 19.046C137.476 19.5593 137.234 20.3 137.234 21.268V28H134.154V15.812H137.234V17.33C137.644 16.802 138.165 16.3913 138.796 16.098C139.441 15.79 140.145 15.636 140.908 15.636ZM147.907 21.906C147.907 20.6447 148.163 19.5447 148.677 18.606C149.19 17.6527 149.901 16.9193 150.811 16.406C151.72 15.878 152.761 15.614 153.935 15.614C155.445 15.614 156.692 15.9953 157.675 16.758C158.672 17.506 159.339 18.562 159.677 19.926H156.355C156.179 19.398 155.878 18.9873 155.453 18.694C155.042 18.386 154.529 18.232 153.913 18.232C153.033 18.232 152.336 18.5547 151.823 19.2C151.309 19.8307 151.053 20.7327 151.053 21.906C151.053 23.0647 151.309 23.9667 151.823 24.612C152.336 25.2427 153.033 25.558 153.913 25.558C155.159 25.558 155.973 25.0007 156.355 23.886H159.677C159.339 25.206 158.672 26.2547 157.675 27.032C156.677 27.8093 155.431 28.198 153.935 28.198C152.761 28.198 151.72 27.9413 150.811 27.428C149.901 26.9 149.19 26.1667 148.677 25.228C148.163 24.2747 147.907 23.1673 147.907 21.906ZM173.263 21.642C173.263 22.082 173.234 22.478 173.175 22.83H164.265C164.338 23.71 164.646 24.3993 165.189 24.898C165.732 25.3967 166.399 25.646 167.191 25.646C168.335 25.646 169.149 25.1547 169.633 24.172H172.955C172.603 25.3453 171.928 26.3133 170.931 27.076C169.934 27.824 168.709 28.198 167.257 28.198C166.084 28.198 165.028 27.9413 164.089 27.428C163.165 26.9 162.439 26.1593 161.911 25.206C161.398 24.2527 161.141 23.1527 161.141 21.906C161.141 20.6447 161.398 19.5373 161.911 18.584C162.424 17.6307 163.143 16.8973 164.067 16.384C164.991 15.8707 166.054 15.614 167.257 15.614C168.416 15.614 169.45 15.8633 170.359 16.362C171.283 16.8607 171.994 17.572 172.493 18.496C173.006 19.4053 173.263 20.454 173.263 21.642ZM170.073 20.762C170.058 19.97 169.772 19.3393 169.215 18.87C168.658 18.386 167.976 18.144 167.169 18.144C166.406 18.144 165.761 18.3787 165.233 18.848C164.72 19.3027 164.404 19.9407 164.287 20.762H170.073ZM180.175 28.198C179.178 28.198 178.283 28.022 177.491 27.67C176.699 27.3033 176.068 26.812 175.599 26.196C175.144 25.58 174.895 24.898 174.851 24.15H177.953C178.012 24.6193 178.239 25.008 178.635 25.316C179.046 25.624 179.552 25.778 180.153 25.778C180.74 25.778 181.194 25.6607 181.517 25.426C181.854 25.1913 182.023 24.8907 182.023 24.524C182.023 24.128 181.818 23.8347 181.407 23.644C181.011 23.4387 180.373 23.2187 179.493 22.984C178.584 22.764 177.836 22.5367 177.249 22.302C176.677 22.0673 176.178 21.708 175.753 21.224C175.342 20.74 175.137 20.0873 175.137 19.266C175.137 18.5913 175.328 17.9753 175.709 17.418C176.105 16.8607 176.662 16.4207 177.381 16.098C178.114 15.7753 178.972 15.614 179.955 15.614C181.407 15.614 182.566 15.9807 183.431 16.714C184.296 17.4327 184.773 18.408 184.861 19.64H181.913C181.869 19.156 181.664 18.7747 181.297 18.496C180.945 18.2027 180.468 18.056 179.867 18.056C179.31 18.056 178.877 18.1587 178.569 18.364C178.276 18.5693 178.129 18.8553 178.129 19.222C178.129 19.6327 178.334 19.948 178.745 20.168C179.156 20.3733 179.794 20.586 180.659 20.806C181.539 21.026 182.265 21.2533 182.837 21.488C183.409 21.7227 183.9 22.0893 184.311 22.588C184.736 23.072 184.956 23.7173 184.971 24.524C184.971 25.228 184.773 25.8587 184.377 26.416C183.996 26.9733 183.438 27.4133 182.705 27.736C181.986 28.044 181.143 28.198 180.175 28.198Z" fill="white"/>
</svg>
